<?xml version="1.0" encoding="UTF-8"?>
<!DOCTYPE svg PUBLIC "-//W3C//DTD SVG 1.1//EN" "http://www.w3.org/Graphics/SVG/1.1/DTD/svg11.dtd">
<!-- Creator: CorelDRAW -->
<svg xmlns="http://www.w3.org/2000/svg" xml:space="preserve" width="3in" height="3in" style="shape-rendering:geometricPrecision; text-rendering:geometricPrecision; image-rendering:optimizeQuality; fill-rule:evenodd; clip-rule:evenodd"
viewBox="0 0 3 3"
 xmlns:xlink="http://www.w3.org/1999/xlink">
 <defs>
  <style type="text/css">
   <![CDATA[
    .fil0 {fill:#F5615D}
    .fil1 {fill:#FFFFFE}
   ]]>
  </style>
 </defs>
 <g id="Layer_x0020_1">
  <metadata id="CorelCorpID_0Corel-Layer"/>
  <circle class="fil0" cx="1.5" cy="1.5" r="1.5"/>
  <path class="fil1" d="M1.7519 2.27662l-0.985583 0c-0.0659724,0 -0.119634,-0.0536693 -0.119634,-0.119638l0 -1.36682c0,-0.0659724 0.0536654,-0.119638 0.119634,-0.119638l0.756685 0 0 0.32187c0,0.0147362 0.0119291,0.0266693 0.0266654,0.0266693l0.32187 0 0 1.13792c0,0.0659724 -0.0536654,0.119638 -0.119638,0.119638zm-0.7415 -0.939256l-0.176665 0c-0.0147362,0 -0.0266654,-0.0119291 -0.0266654,-0.0266654l0 -0.176665c0,-0.0147362 0.0119291,-0.0266654 0.0266654,-0.0266654l0.176665 0c0.0147323,0 0.0266654,0.0119291 0.0266654,0.0266654l0 0.176665c-1.5748e-005,0.0147402 -0.0119488,0.0266654 -0.0266654,0.0266654zm0.674083 -0.152539l-0.516035 0c-0.0147323,0 -0.0266654,-0.0119291 -0.0266654,-0.0266654 0,-0.0147362 0.0119331,-0.0266654 0.0266654,-0.0266654l0.516035 0c0.0147362,0 0.0266693,0.0119291 0.0266693,0.0266654 0,0.0147362 -0.0119331,0.0266654 -0.0266693,0.0266654zm-0.144122 0.128429l-0.371913 0c-0.0147323,0 -0.0266654,-0.0119291 -0.0266654,-0.0266654 0,-0.0147362 0.0119331,-0.0266654 0.0266654,-0.0266654l0.371913 0c0.0147323,0 0.0266654,0.0119291 0.0266654,0.0266654 0,0.0147362 -0.0119252,0.0266654 -0.0266654,0.0266654zm-0.529961 0.354193l-0.176665 0c-0.0147362,0 -0.0266654,-0.0119331 -0.0266654,-0.0266693l0 -0.176665c0,-0.0147323 0.0119291,-0.0266654 0.0266654,-0.0266654l0.176665 0c0.0147323,0 0.0266654,0.0119331 0.0266654,0.0266654l0 0.176665c-1.5748e-005,0.0147244 -0.0119488,0.0266693 -0.0266654,0.0266693zm0.674083 -0.152539l-0.516035 0c-0.0147323,0 -0.0266654,-0.0119331 -0.0266654,-0.0266693 0,-0.0147323 0.0119331,-0.0266654 0.0266654,-0.0266654l0.516035 0c0.0147362,0 0.0266693,0.0119331 0.0266693,0.0266654 0,0.0147362 -0.0119331,0.0266693 -0.0266693,0.0266693zm-0.144122 0.128413l-0.371913 0c-0.0147323,0 -0.0266654,-0.0119331 -0.0266654,-0.0266693 0,-0.0147323 0.0119331,-0.0266654 0.0266654,-0.0266654l0.371913 0c0.0147323,0 0.0266654,0.0119331 0.0266654,0.0266654 0,0.0147362 -0.0119252,0.0266693 -0.0266654,0.0266693zm-0.529961 0.354189l-0.176665 0c-0.0147362,0 -0.0266654,-0.0119331 -0.0266654,-0.0266654l0 -0.176665c0,-0.0147362 0.0119291,-0.0266654 0.0266654,-0.0266654l0.176665 0c0.0147323,0 0.0266654,0.0119291 0.0266654,0.0266654l0 0.176665c-1.5748e-005,0.0147402 -0.0119488,0.0266654 -0.0266654,0.0266654zm0.674083 -0.152524l-0.516035 0c-0.0147323,0 -0.0266654,-0.0119331 -0.0266654,-0.0266654 0,-0.0147362 0.0119331,-0.0266693 0.0266654,-0.0266693l0.516035 0c0.0147362,0 0.0266693,0.0119331 0.0266693,0.0266693 0,0.0147323 -0.0119331,0.0266654 -0.0266693,0.0266654zm-0.144122 0.128413l-0.371913 0c-0.0147323,0 -0.0266654,-0.0119331 -0.0266654,-0.0266654 0,-0.0147362 0.0119331,-0.0266693 0.0266654,-0.0266693l0.371913 0c0.0147323,0 0.0266654,0.0119331 0.0266654,0.0266693 0,0.0147323 -0.0119252,0.0266654 -0.0266654,0.0266654zm0.0359724 -1.28724l0.279575 0.279575 -0.279575 0 0 -0.279575z"/>
  <path class="fil1" d="M2.06263 2.13625l-0.0449961 -0.085689 0.325142 0 -0.0449882 0.0856969c-0.00616535,-0.00851181 -0.0145118,-0.0153465 -0.0243031,-0.0196811 -0.0589685,-0.0261181 -0.127531,-0.0261024 -0.186516,-2.3622e-005 -0.00981102,0.00433858 -0.0181693,0.0111772 -0.0243386,0.0196969zm-0.0555433 -0.139024l0 -1.01361 0.346232 0 0 1.01361 -0.346232 0zm0 -1.06694l0 -0.075626c0,-0.0954606 0.0776693,-0.173114 0.173122,-0.173114 0.0954528,0 0.17311,0.0776535 0.17311,0.173114l0 0.075626 -0.346232 0z"/>
  <path class="fil1" d="M2.18023 2.32948c-0.00991732,0 -0.0190039,-0.0055 -0.0236102,-0.0142598l-0.0690039 -0.131402c-0.00343307,-0.00653937 -0.004,-0.0141929 -0.00155118,-0.0211811 0.00242913,-0.00697244 0.0076378,-0.0126102 0.0143858,-0.0155945 0.0504055,-0.0222795 0.109165,-0.0222795 0.159543,1.5748e-005 0.00673228,0.00298425 0.0119409,0.0086378 0.0143858,0.0156102 0.00243307,0.00697244 0.00186614,0.0146417 -0.00156693,0.0211654l-0.0689724 0.13139c-0.00461417,0.00875591 -0.0137087,0.0142559 -0.0236102,0.0142559z"/>
 </g>
</svg>
