<?xml version="1.0" standalone="no"?>
<!DOCTYPE svg PUBLIC "-//W3C//DTD SVG 20010904//EN"
 "http://www.w3.org/TR/2001/REC-SVG-20010904/DTD/svg10.dtd">
<svg version="1.0" xmlns="http://www.w3.org/2000/svg"
 width="1260.000000pt" height="1127.000000pt" viewBox="0 0 1260.000000 1127.000000"
 preserveAspectRatio="xMidYMid meet">
<metadata>
Created by potrace 1.16, written by Peter Selinger 2001-2019
</metadata>
<g transform="translate(0.000000,1127.000000) scale(0.100000,-0.100000)"
fill="#000" stroke="none">
<path d="M5100 8374 c-14 -2 -58 -9 -98 -15 -426 -63 -771 -357 -846 -721 -63
-306 69 -602 358 -800 81 -56 246 -132 351 -163 48 -14 216 -50 373 -81 370
-72 430 -87 527 -134 146 -71 252 -175 297 -295 19 -49 23 -80 23 -165 0 -94
-3 -111 -27 -160 -80 -162 -254 -274 -486 -316 -113 -19 -351 -20 -459 0 -257
47 -498 179 -705 387 -106 108 -165 185 -227 299 l-41 75 0 -286 0 -285 83
-46 c122 -68 149 -80 302 -138 238 -90 440 -133 703 -150 415 -28 734 58 981
264 l81 67 124 -66 c297 -157 606 -243 962 -265 452 -29 774 66 1017 299 119
115 187 220 239 376 20 60 23 89 23 210 -1 126 -3 148 -28 219 -77 219 -257
408 -493 517 -160 73 -247 96 -629 169 -318 60 -377 76 -494 136 -94 48 -175
120 -231 204 -76 114 -92 290 -36 404 78 159 266 279 497 318 41 6 135 12 209
12 123 0 146 -3 252 -33 64 -18 150 -49 190 -69 l73 -37 5 -355 5 -355 341
320 c259 243 339 323 330 332 -43 44 -363 176 -552 228 -382 105 -683 130
-964 80 -209 -37 -420 -136 -560 -262 l-51 -46 -107 56 c-240 125 -512 211
-797 253 -97 14 -465 27 -515 18z m464 -150 c170 -36 313 -96 465 -198 111
-75 235 -178 276 -231 l28 -37 -17 -53 c-33 -104 -40 -214 -22 -320 56 -333
279 -560 682 -695 107 -35 488 -118 744 -160 41 -7 98 -21 127 -31 52 -18 263
-156 263 -173 0 -4 12 -22 27 -40 40 -47 80 -140 94 -215 22 -126 -12 -237
-104 -337 -143 -157 -339 -225 -641 -225 -278 0 -465 59 -716 226 -132 88
-296 240 -293 273 1 9 11 60 22 112 25 113 26 163 7 263 -52 268 -226 479
-502 609 -139 65 -287 107 -554 159 -456 88 -538 113 -665 204 -217 155 -284
420 -155 610 111 162 276 243 570 279 64 8 292 -5 364 -20z"/>
<path d="M4980 4649 c-101 -20 -190 -86 -221 -165 -36 -94 -51 -221 -56 -480
-5 -265 3 -441 33 -649 36 -261 53 -305 142 -370 80 -59 122 -70 209 -58 58 8
86 19 129 48 76 50 95 94 93 211 -2 80 -4 87 -26 97 -15 7 -36 7 -60 1 -36 -9
-37 -11 -48 -69 -14 -78 -29 -104 -70 -121 -49 -20 -69 -18 -105 12 -55 46
-91 141 -110 287 -6 45 -18 125 -27 176 -31 182 -3 670 49 843 20 68 126 115
187 83 39 -20 49 -44 57 -145 4 -45 10 -82 13 -84 3 -2 29 -7 57 -11 75 -10
88 7 81 101 -9 99 -38 169 -94 230 -65 70 -120 85 -233 63z"/>
<path d="M7753 4650 c-82 -17 -144 -51 -183 -102 -45 -56 -54 -81 -75 -203
-38 -217 -38 -633 0 -910 8 -60 20 -147 25 -193 20 -161 68 -234 193 -297 82
-40 187 -28 275 32 74 51 86 77 88 196 2 113 -6 124 -81 113 l-42 -7 -7 -55
c-8 -74 -30 -112 -71 -130 -50 -20 -70 -18 -108 16 -58 50 -83 125 -118 346
-31 195 -31 204 -26 449 6 246 22 384 59 507 13 44 45 70 111 90 31 9 44 9 73
-5 42 -21 54 -49 54 -133 0 -85 9 -101 65 -110 34 -5 51 -2 71 11 26 17 26 19
20 89 -3 39 -13 91 -21 116 -17 52 -92 147 -131 168 -33 17 -117 23 -171 12z"/>
<path d="M2515 4570 c-3 -5 -10 -204 -15 -442 -10 -436 -18 -630 -41 -944 -7
-94 -9 -179 -6 -189 6 -15 15 -16 65 -10 31 4 63 12 70 17 8 7 12 38 12 89 0
44 4 79 9 79 6 0 29 -23 52 -50 50 -59 122 -110 156 -110 19 0 28 10 43 46 11
25 20 54 20 63 0 10 -28 42 -62 71 -66 55 -138 142 -138 166 0 7 33 36 73 63
62 42 92 72 155 152 7 9 10 23 6 32 -6 18 -77 67 -97 67 -7 0 -46 -34 -87 -75
-51 -51 -77 -71 -82 -62 -12 18 -10 702 3 860 6 76 8 149 5 163 -6 22 -11 24
-71 24 -35 0 -67 -4 -70 -10z"/>
<path d="M5483 4556 c-23 -6 -44 -14 -48 -18 -9 -9 -20 -587 -17 -888 3 -253
31 -593 50 -612 13 -13 115 -21 130 -10 10 7 14 37 15 103 2 74 7 103 23 134
39 76 140 117 192 78 38 -28 44 -65 31 -179 -13 -118 -7 -140 45 -149 85 -16
98 9 104 210 4 150 4 150 -25 205 -24 46 -38 60 -85 83 -80 41 -155 41 -238 0
-39 -19 -63 -26 -65 -19 -6 20 -20 588 -20 821 0 127 -4 236 -8 243 -9 14 -26
14 -84 -2z"/>
<path d="M4485 4519 c-22 -5 -128 -12 -235 -16 l-195 -8 -9 -63 c-6 -41 -5
-67 1 -73 6 -6 46 -15 89 -22 l79 -12 3 -105 c6 -155 -17 -738 -34 -865 -20
-160 -28 -291 -18 -298 12 -7 166 10 174 20 8 8 28 548 36 948 2 121 7 239 10
262 8 64 22 73 118 73 110 0 118 7 110 88 -6 55 -10 65 -31 73 -28 10 -43 10
-98 -2z"/>
<path d="M1860 4455 c-147 -33 -258 -115 -312 -231 -26 -55 -31 -78 -31 -142
0 -92 16 -170 51 -234 41 -77 223 -212 385 -287 97 -45 127 -76 127 -133 0
-96 -88 -174 -169 -149 -20 6 -49 21 -66 35 -26 21 -30 30 -33 95 -4 66 -7 73
-29 82 -13 5 -47 9 -74 9 -45 0 -51 -3 -60 -27 -17 -44 -6 -171 19 -219 28
-55 93 -109 154 -130 72 -23 214 -16 286 16 99 43 164 154 166 280 1 127 -51
183 -283 301 -186 95 -255 150 -295 232 -36 75 -42 119 -22 172 19 49 98 129
151 151 77 32 302 5 343 -41 40 -47 24 -127 -40 -192 l-41 -42 40 -41 c57 -56
86 -55 146 9 25 26 50 66 56 87 19 66 24 156 11 204 -16 62 -106 150 -182 178
-76 29 -213 36 -298 17z"/>
<path d="M6875 4455 c-137 -30 -257 -115 -310 -222 -27 -53 -30 -67 -30 -158
0 -118 23 -205 67 -260 34 -40 168 -146 245 -193 29 -17 81 -43 115 -58 70
-29 123 -74 133 -111 9 -39 -14 -105 -50 -139 -57 -53 -119 -53 -180 0 -33 28
-37 37 -42 96 -6 78 -18 90 -89 90 -69 0 -79 -13 -79 -109 0 -129 50 -208 165
-260 61 -28 184 -28 273 -1 79 25 118 61 161 150 25 53 31 77 31 135 0 126
-55 196 -212 271 -232 111 -316 172 -362 266 -59 117 -34 210 80 294 48 35 60
39 124 42 95 5 231 -21 262 -49 45 -43 23 -156 -38 -200 -16 -11 -29 -27 -29
-36 0 -26 68 -83 99 -83 40 0 118 83 136 145 22 73 19 180 -6 232 -63 131
-269 201 -464 158z"/>
<path d="M8544 4289 c-85 -44 -161 -104 -189 -150 -40 -62 -113 -248 -129
-330 -18 -85 -56 -427 -56 -499 0 -55 6 -61 59 -65 20 -1 43 -5 51 -9 28 -11
39 10 54 104 14 97 61 260 74 260 4 0 157 3 341 6 274 5 335 4 342 -7 11 -17
10 -145 0 -254 -9 -90 -4 -102 45 -111 45 -8 81 2 94 26 6 11 15 120 21 243
15 342 -15 519 -112 656 -40 58 -60 77 -108 100 -91 47 -164 61 -304 61 -120
0 -127 -1 -183 -31z m361 -155 c65 -23 120 -79 140 -146 23 -76 40 -186 31
-195 -4 -4 -80 -11 -169 -15 -89 -4 -209 -11 -267 -17 -263 -26 -240 -26 -240
-3 0 33 48 190 75 241 30 60 96 118 149 132 23 5 46 12 51 14 30 11 186 3 230
-11z"/>
<path d="M9620 4310 c-185 -18 -200 -21 -212 -44 -8 -14 -12 -117 -14 -321 -3
-339 -8 -436 -30 -584 -18 -121 -16 -125 63 -136 47 -6 53 -5 67 17 9 14 20
66 26 121 5 53 14 116 19 139 5 24 12 68 15 98 4 30 10 61 14 67 5 8 55 14
142 18 189 8 340 25 371 41 37 18 88 80 111 132 16 35 19 60 16 111 -12 171
-120 311 -263 339 -63 13 -205 14 -325 2z m306 -171 c80 -25 115 -58 134 -123
22 -79 -4 -139 -70 -164 -14 -5 -114 -10 -222 -10 l-197 -1 -5 32 c-9 59 -17
267 -11 277 4 6 65 10 155 10 122 0 160 -4 216 -21z"/>
<path d="M3385 4289 c-95 -12 -198 -63 -259 -129 -70 -75 -104 -155 -122 -291
-30 -218 3 -373 103 -497 26 -31 59 -54 131 -89 84 -41 105 -47 176 -51 203
-11 516 80 516 150 0 12 -22 42 -50 71 l-49 49 -33 -27 c-67 -57 -213 -105
-318 -105 -209 0 -320 109 -320 315 0 42 5 78 13 87 10 13 52 17 262 22 323 9
457 16 491 25 46 12 49 28 26 146 -23 119 -62 197 -124 248 -67 55 -299 95
-443 76z m279 -167 c69 -31 123 -77 136 -118 7 -19 9 -38 5 -42 -4 -4 -51 -6
-105 -4 -56 1 -131 -4 -175 -13 -90 -17 -335 -32 -335 -20 0 13 51 98 74 123
28 32 80 58 163 81 84 25 171 22 237 -7z"/>
<path d="M10684 4286 c-101 -16 -167 -51 -238 -126 -95 -99 -123 -183 -132
-385 -5 -101 -3 -145 10 -199 36 -150 115 -247 253 -307 75 -33 83 -34 198
-33 155 0 292 29 395 81 65 34 75 42 72 63 -3 31 -28 65 -68 97 l-31 23 -44
-35 c-24 -19 -80 -47 -124 -62 -68 -24 -95 -28 -185 -27 -87 0 -114 4 -158 24
-64 28 -115 84 -139 154 -21 61 -24 213 -4 225 7 4 126 11 264 15 464 13 512
17 527 45 12 24 -23 207 -50 262 -26 49 -85 116 -119 133 -42 22 -190 55 -271
60 -41 3 -111 -1 -156 -8z m303 -171 c32 -14 71 -38 87 -53 30 -29 61 -90 51
-101 -4 -3 -50 -5 -103 -4 -54 2 -135 -4 -182 -12 -47 -8 -140 -17 -207 -21
-142 -8 -141 -9 -90 76 40 67 94 102 197 130 96 25 170 21 247 -15z"/>
</g>
</svg>
